<svg xmlns="http://www.w3.org/2000/svg" width="18.774" height="15.019" viewBox="0 0 18.774 15.019">
  <defs>
    <style>
      .cls-1 {
        fill: #b20022;
      }
    </style>
  </defs>
  <path id="Icon_awesome-user-shield" data-name="Icon awesome-user-shield" class="cls-1" d="M18.255,7.953l-3.379-1.32a.909.909,0,0,0-.651,0l-3.379,1.32a.793.793,0,0,0-.519.73,6.669,6.669,0,0,0,3.9,6.275.91.91,0,0,0,.651,0,6.647,6.647,0,0,0,3.9-6.275A.793.793,0,0,0,18.255,7.953Zm-3.7,5.612V8.017l2.8,1.094a5.247,5.247,0,0,1-2.8,4.453ZM6.571,7.51A3.755,3.755,0,1,0,2.816,3.755,3.755,3.755,0,0,0,6.571,7.51ZM9.387,8.683a1.666,1.666,0,0,1,.032-.211c-.073,0-.144-.023-.22-.023h-.49a5.106,5.106,0,0,1-4.277,0h-.49A3.944,3.944,0,0,0,0,12.391v1.22a1.408,1.408,0,0,0,1.408,1.408H11.734A1.444,1.444,0,0,0,12.3,14.9,7.881,7.881,0,0,1,9.387,8.683Z"/>
</svg>
