<svg xmlns="http://www.w3.org/2000/svg" width="19.209" height="19.209" viewBox="0 0 19.209 19.209">
  <defs>
    <style>
      .cls-1 {
        fill: #b20022;
      }
    </style>
  </defs>
  <path id="Icon_awesome-draw-polygon" data-name="Icon awesome-draw-polygon" class="cls-1" d="M16.465,15.971c-.015,0-.029,0-.044,0l-1.681-2.8a2.647,2.647,0,0,0,0-2.64l1.681-2.8c.015,0,.029,0,.044,0A2.744,2.744,0,1,0,14.1,3.622H5.108A2.736,2.736,0,1,0,1.372,7.358v8.994a2.736,2.736,0,1,0,3.736,3.736H14.1a2.739,2.739,0,1,0,2.364-4.116Zm-12.349.381V7.358a2.737,2.737,0,0,0,.991-.991h8.934L12.393,9.115c-.015,0-.029,0-.044,0a2.744,2.744,0,0,0,0,5.488c.015,0,.029,0,.044,0l1.649,2.748H5.108A2.733,2.733,0,0,0,4.116,16.352Zm7.547-4.5a.686.686,0,1,1,.686.686A.687.687,0,0,1,11.663,11.855Zm5.488-6.86a.686.686,0,1,1-.686-.686A.687.687,0,0,1,17.151,4.994ZM2.744,4.308a.686.686,0,1,1-.686.686A.687.687,0,0,1,2.744,4.308ZM2.058,18.715a.686.686,0,1,1,.686.686A.687.687,0,0,1,2.058,18.715Zm14.407.686a.686.686,0,1,1,.686-.686A.687.687,0,0,1,16.465,19.4Z" transform="translate(0 -2.25)"/>
</svg>
