<svg xmlns="http://www.w3.org/2000/svg" width="21.124" height="17.645" viewBox="0 0 21.124 17.645">
  <defs>
    <style>
      .cls-1 {
        fill: #b20022;
      }
    </style>
  </defs>
  <g id="iconfinder_OUTLINE_Bussiness_and_Media-01_4041192" transform="translate(-25.6 -63.5)">
    <path id="Path_2" data-name="Path 2" class="cls-1" d="M28.713,329.2c-1.774,0-3.113.656-3.113,1.526v2.411c0,.871,1.339,1.527,3.113,1.527s3.113-.656,3.113-1.527v-2.411C31.825,329.86,30.487,329.2,28.713,329.2Zm-2.471,2.287a4.471,4.471,0,0,0,2.471.61,4.471,4.471,0,0,0,2.471-.61v.789a3.664,3.664,0,0,1-2.471.706,3.673,3.673,0,0,1-2.471-.706Zm2.471-1.646c1.508,0,2.471.523,2.471.885v.339a3.664,3.664,0,0,1-2.471.706,3.673,3.673,0,0,1-2.471-.706v-.339C26.242,330.369,27.2,329.842,28.713,329.842Zm0,4.185c-1.508,0-2.471-.523-2.471-.885v-.449a4.471,4.471,0,0,0,2.471.61,4.471,4.471,0,0,0,2.471-.61v.449C31.184,333.5,30.221,334.027,28.713,334.027Z" transform="translate(0 -253.52)"/>
    <path id="Path_3" data-name="Path 3" class="cls-1" d="M191.213,276.6c-1.774,0-3.113.656-3.113,1.527v4.823c0,.871,1.339,1.527,3.113,1.527s3.113-.656,3.113-1.527v-4.823C194.325,277.256,192.987,276.6,191.213,276.6Zm2.471,4.277a4.677,4.677,0,0,1-4.942,0v-.788a5.311,5.311,0,0,0,4.942,0Zm0-1.206a4.677,4.677,0,0,1-4.942,0v-.788a5.311,5.311,0,0,0,4.942,0Zm-4.942,1.627a5.312,5.312,0,0,0,4.942,0v.788a4.677,4.677,0,0,1-4.942,0Zm2.471-4.057c1.508,0,2.471.523,2.471.885v.339a4.677,4.677,0,0,1-4.942,0v-.339C188.742,277.769,189.7,277.242,191.213,277.242Zm0,6.6c-1.508,0-2.471-.523-2.471-.885V282.5a5.311,5.311,0,0,0,4.942,0v.449C193.684,283.311,192.721,283.838,191.213,283.838Z" transform="translate(-155.051 -203.331)"/>
    <path id="Path_4" data-name="Path 4" class="cls-1" d="M353.713,224c-1.774,0-3.113.656-3.113,1.527v7.234c0,.871,1.339,1.527,3.113,1.527s3.113-.656,3.113-1.527v-7.234C356.825,224.656,355.487,224,353.713,224Zm2.471,6.688a4.677,4.677,0,0,1-4.942,0V229.9a5.311,5.311,0,0,0,4.942,0Zm0-1.206a4.677,4.677,0,0,1-4.942,0v-.788a5.311,5.311,0,0,0,4.942,0Zm0-1.206a4.677,4.677,0,0,1-4.942,0v-.788a5.312,5.312,0,0,0,4.942,0Zm0-1.206a4.677,4.677,0,0,1-4.942,0v-.788a5.311,5.311,0,0,0,4.942,0Zm-4.942,4.039a5.312,5.312,0,0,0,4.942,0v.788a4.677,4.677,0,0,1-4.942,0Zm2.471-6.468c1.508,0,2.471.523,2.471.885v.339a4.677,4.677,0,0,1-4.942,0v-.339C351.242,225.169,352.2,224.642,353.713,224.642Zm0,9.008c-1.508,0-2.471-.523-2.471-.885v-.449a5.311,5.311,0,0,0,4.942,0v.449C356.184,233.123,355.221,233.65,353.713,233.65Z" transform="translate(-310.101 -153.142)"/>
    <path id="Path_5" data-name="Path 5" class="cls-1" d="M68.883,73.567a1.186,1.186,0,0,0,1.183-1.183.584.584,0,0,0,0-.092l5.313-1.962a1.184,1.184,0,0,0,2.141-.7,1.174,1.174,0,0,0-.055-.362l5.551-3.69a1.172,1.172,0,0,0,.77.284,1.176,1.176,0,1,0-1.128-.821L77.1,68.735a1.172,1.172,0,0,0-.77-.284,1.186,1.186,0,0,0-1.183,1.183.584.584,0,0,0,0,.092l-5.313,1.962a1.184,1.184,0,1,0-.958,1.88Zm14.9-9.425a.541.541,0,1,1-.541.541A.542.542,0,0,1,83.781,64.142ZM76.332,69.1a.541.541,0,1,1-.5.733v-.009a.5.5,0,0,1-.032-.183A.535.535,0,0,1,76.332,69.1Zm-7.449,2.746a.541.541,0,1,1-.541.541A.542.542,0,0,1,68.883,71.843Z" transform="translate(-40.17 0)"/>
  </g>
</svg>
